<svg width="16" height="16" viewBox="0 0 16 16" fill="none" xmlns="http://www.w3.org/2000/svg">
<g clip-path="url(#clip0_787_50)">
<path d="M1.33398 7.33325V13.3333C1.33398 13.8637 1.5447 14.3724 1.91977 14.7475C2.29484 15.1225 2.80355 15.3333 3.33398 15.3333H12.6673C13.1978 15.3333 13.7065 15.1225 14.0815 14.7475C14.4566 14.3724 14.6673 13.8637 14.6673 13.3333V7.33325H1.33398Z" fill="white"/>
<path d="M15.3333 4.66658H13.0533L10.5787 0.333252L9.42133 0.999919L11.518 4.66658H4.482L6.57867 0.999919L5.42133 0.333252L2.94667 4.66658H0.666667C0.489856 4.66658 0.320286 4.73682 0.195262 4.86185C0.0702379 4.98687 0 5.15644 0 5.33325C0 5.51006 0.0702379 5.67963 0.195262 5.80466C0.320286 5.92968 0.489856 5.99992 0.666667 5.99992H15.3333C15.5101 5.99992 15.6797 5.92968 15.8047 5.80466C15.9298 5.67963 16 5.51006 16 5.33325C16 5.15644 15.9298 4.98687 15.8047 4.86185C15.6797 4.73682 15.5101 4.66658 15.3333 4.66658Z" fill="white"/>
</g>
<defs>
<clipPath id="clip0_787_50">
<rect width="16" height="16" fill="white"/>
</clipPath>
</defs>
</svg>
