<svg width="16" height="16" viewBox="0 0 16 16" fill="none" xmlns="http://www.w3.org/2000/svg">
<path fill-rule="evenodd" clip-rule="evenodd" d="M7.99961 14.4001C11.5342 14.4001 14.3996 11.5347 14.3996 8.0001C14.3996 4.46547 11.5342 1.6001 7.99961 1.6001C4.46499 1.6001 1.59961 4.46547 1.59961 8.0001C1.59961 11.5347 4.46499 14.4001 7.99961 14.4001ZM6.98854 5.58327C7.36595 4.95426 7.75655 4.8001 7.99961 4.8001C8.24265 4.8001 8.63329 4.95426 9.01065 5.58327C9.23801 5.96213 9.72937 6.08499 10.1082 5.85767C10.4871 5.63035 10.61 5.13894 10.3826 4.76007C9.82281 3.82699 8.98497 3.2001 7.99961 3.2001C7.01424 3.2001 6.17641 3.82699 5.61656 4.76007C5.38867 5.1399 5.21098 5.55961 5.08038 6.0001H4.79961C4.35779 6.0001 3.99961 6.35827 3.99961 6.8001C3.99961 7.24192 4.35779 7.6001 4.79961 7.6001H4.81031C4.80315 7.73371 4.79961 7.8672 4.79961 8.0001C4.79961 8.13298 4.80315 8.2665 4.81031 8.4001H4.79961C4.35779 8.4001 3.99961 8.75826 3.99961 9.2001C3.99961 9.64194 4.35779 10.0001 4.79961 10.0001H5.08038C5.21098 10.4406 5.38867 10.8603 5.61656 11.2401C6.17641 12.1732 7.01424 12.8001 7.99961 12.8001C8.98497 12.8001 9.82281 12.1732 10.3826 11.2401C10.61 10.8612 10.4871 10.3699 10.1082 10.1425C9.72937 9.91522 9.23801 10.0381 9.01065 10.4169C8.63329 11.0459 8.24265 11.2001 7.99961 11.2001C7.75655 11.2001 7.36595 11.0459 6.98854 10.4169C6.91103 10.2877 6.84049 10.1482 6.77734 10.0001H7.99961C8.44145 10.0001 8.79961 9.64194 8.79961 9.2001C8.79961 8.75826 8.44145 8.4001 7.99961 8.4001H6.41317C6.40418 8.2681 6.39961 8.13458 6.39961 8.0001C6.39961 7.86563 6.40418 7.73208 6.41317 7.6001H7.99961C8.44145 7.6001 8.79961 7.24192 8.79961 6.8001C8.79961 6.35827 8.44145 6.0001 7.99961 6.0001H6.77734C6.84049 5.852 6.91103 5.71247 6.98854 5.58327Z" fill="white"/>
</svg>
